<?xml version="1.0" standalone="no"?>
<!DOCTYPE svg PUBLIC "-//W3C//DTD SVG 20010904//EN"
 "http://www.w3.org/TR/2001/REC-SVG-20010904/DTD/svg10.dtd">
<svg version="1.0" xmlns="http://www.w3.org/2000/svg"
 width="1239.000000pt" height="853.000000pt" viewBox="0 0 1239.000000 853.000000"
 preserveAspectRatio="xMidYMid meet">

<g transform="translate(0.000000,853.000000) scale(0.100000,-0.100000)"
fill="#000000" stroke="none"
>
<path d="M1075 8000 c-253 -53 -454 -255 -526 -528 -20 -75 -21 -106 -26
-1492 -5 -1401 9 -3633 27 -4020 13 -293 56 -477 162 -683 175 -341 502 -588
913 -690 219 -55 86 -52 2395 -49 2514 4 3442 13 3541 36 202 47 425 141 588
250 382 254 636 701 707 1241 9 66 17 130 20 141 3 20 12 22 116 28 725 44
1365 273 1888 676 135 104 389 363 494 502 280 376 450 789 523 1273 27 182
25 637 -5 832 -86 569 -282 1046 -592 1438 -90 114 -308 327 -425 416 -436
332 -869 516 -1435 612 l-125 21 -4100 2 c-2255 1 -4118 -2 -4140 -6z m8215
-585 c399 -47 729 -166 1060 -382 162 -107 221 -153 339 -267 335 -326 541
-755 626 -1306 22 -143 31 -468 16 -611 -51 -495 -248 -927 -576 -1268 -397
-413 -911 -658 -1560 -747 -70 -9 -236 -19 -400 -23 l-280 -6 -54 -30 c-101
-56 -151 -149 -151 -280 0 -125 -20 -324 -45 -451 -93 -463 -330 -747 -735
-879 l-85 -28 -620 -8 c-341 -4 -1592 -9 -2780 -11 l-2160 -3 -88 23 c-342 87
-545 269 -632 567 -21 72 -28 125 -35 260 -17 315 -32 2528 -28 3955 4 1505 2
1434 51 1488 l20 22 3996 0 c3448 0 4013 -2 4121 -15z"/>
<path d="M8553 6685 c-108 -30 -180 -103 -208 -211 -23 -88 -23 -2610 0 -2698
30 -113 113 -194 223 -217 70 -14 640 -7 781 11 113 14 227 52 386 130 448
219 707 553 813 1050 50 228 55 594 13 791 -58 267 -158 469 -334 670 -215
246 -497 404 -832 465 -130 24 -766 31 -842 9z m697 -575 c265 -32 482 -168
627 -392 96 -148 133 -298 133 -537 0 -516 -184 -823 -595 -992 -78 -32 -111
-40 -206 -49 -63 -5 -156 -10 -206 -10 l-93 0 0 995 0 995 128 0 c70 0 166 -5
212 -10z" />
<path d="M5618 6074 c-287 -52 -603 -221 -835 -447 l-62 -60 -98 94 c-206 197
-461 332 -743 394 -116 25 -364 31 -490 11 -418 -66 -730 -310 -848 -661 -60
-176 -74 -424 -38 -630 49 -275 173 -563 324 -753 192 -242 765 -804 1502
-1472 375 -340 351 -324 420 -293 75 34 969 883 1449 1377 387 397 493 526
590 717 118 232 167 443 158 687 -7 224 -63 404 -177 571 -161 238 -443 411
-757 466 -105 18 -292 18 -395 -1z" fill="#FF504F"/>
</g>
</svg>
