<svg width="52" height="52" viewBox="0 0 52 52" fill="currentColor" xmlns="http://www.w3.org/2000/svg">
<path fill-rule="evenodd" clip-rule="evenodd" d="M26 48C38.1503 48 48 38.1503 48 26C48 13.8497 38.1503 4 26 4C13.8497 4 4 13.8497 4 26C4 38.1503 13.8497 48 26 48ZM26 52C40.3594 52 52 40.3594 52 26C52 11.6406 40.3594 0 26 0C11.6406 0 0 11.6406 0 26C0 40.3594 11.6406 52 26 52Z" fill="currentColor"/>
<path fill-rule="evenodd" clip-rule="evenodd" d="M15.5858 15.5858C16.3668 14.8047 17.6332 14.8047 18.4142 15.5858L36.4142 33.5858C37.1953 34.3668 37.1953 35.6332 36.4142 36.4142C35.6332 37.1953 34.3668 37.1953 33.5858 36.4142L15.5858 18.4142C14.8047 17.6332 14.8047 16.3668 15.5858 15.5858Z" fill="currentColor"/>
<path fill-rule="evenodd" clip-rule="evenodd" d="M36.4142 15.5858C37.1953 16.3668 37.1953 17.6332 36.4142 18.4142L18.4142 36.4142C17.6332 37.1953 16.3668 37.1953 15.5858 36.4142C14.8047 35.6332 14.8047 34.3668 15.5858 33.5858L33.5858 15.5858C34.3668 14.8047 35.6332 14.8047 36.4142 15.5858Z" fill="currentColor"/>
</svg>
