<svg width="52" height="52" viewBox="0 0 52 52" fill="currentColor" xmlns="http://www.w3.org/2000/svg">
<path fill-rule="evenodd" clip-rule="evenodd" d="M13.8564 22.9182C11.4521 21.703 10.8752 18.5145 12.7248 16.5561L24.546 4.03956C25.3352 3.20389 26.6648 3.20389 27.454 4.03956L39.302 16.5844C41.1437 18.5345 40.5819 21.709 38.1828 22.9086L37 23.5L31.5 26L40.2354 29.7438C41.3509 30.2218 42.189 31.1804 42.5138 32.3498L46.2958 45.9647C46.6498 47.2391 45.6914 48.5 44.3687 48.5H7.63129C6.30865 48.5 5.35026 47.2391 5.70426 45.9647L9.48619 32.3498C9.811 31.1804 10.6491 30.2218 11.7646 29.7438L20.5 26C20.5 26 17.0994 24.5765 15 23.5C14.6396 23.3152 14.2531 23.1187 13.8564 22.9182ZM28 11.5C28.9453 11.699 30.1395 12.2725 30.8602 12.6499C31.2455 12.8516 31.4362 13.2835 31.3258 13.7042C30.7694 15.8239 28.8994 22 26 22C23.1006 22 21.2306 15.8239 20.6742 13.7042C20.5638 13.2835 20.7545 12.8516 21.1398 12.6499C21.8606 12.2725 23.0547 11.699 24 11.5C25.5286 11.1782 26.4714 11.1782 28 11.5ZM37.0619 34.8868C37.0221 34.6381 37.0776 34.3836 37.2173 34.1741L38 33L40.4207 43.6511C40.472 43.8767 40.4435 44.1131 40.34 44.32L39 47L37.0619 34.8868ZM16 19.5L16.232 19.9639C16.4068 20.3136 16.6804 20.6044 17.0187 20.8003L25.499 25.7099C25.8089 25.8894 26.1911 25.8894 26.501 25.7099L34.9813 20.8003C35.3197 20.6044 35.5932 20.3136 35.7681 19.9639L36 19.5L26.4472 24.2764C26.1657 24.4172 25.8343 24.4172 25.5528 24.2764L16 19.5ZM11.66 44.32C11.5565 44.1131 11.528 43.8767 11.5793 43.6511L14 33L14.7827 34.1741C14.9224 34.3836 14.9779 34.6381 14.9381 34.8868L13 47L11.66 44.32Z" fill="currentColor"/>
</svg>
