<svg version="1.0" xmlns="http://www.w3.org/2000/svg" width="60px" height="60px" viewBox="0 0 524.000000 524.000000"
    preserveAspectRatio="xMidYMid meet" fill='currentColor' paint-order='stroke fill markers'>

    <g transform="translate(0.000000,524.000000) scale(0.100000,-0.100000)" fill="currentColor" stroke="none">
        <path d="M2560 5001 c-19 -4 -55 -18 -79 -32 -51 -28 -1303 -1333 -1358 -1415
-54 -81 -75 -147 -81 -255 -5 -113 7 -176 52 -269 37 -78 138 -184 211 -221
28 -14 204 -75 393 -134 188 -60 337 -112 330 -116 -7 -3 -242 -93 -523 -199
-328 -124 -529 -205 -563 -227 -60 -40 -120 -107 -156 -174 -15 -27 -97 -311
-206 -715 -167 -617 -181 -674 -177 -734 9 -123 72 -217 185 -272 l67 -33
1965 0 c1908 0 1967 1 2020 19 75 26 159 110 188 189 41 108 39 118 -153 815
-96 350 -187 666 -202 701 -34 83 -130 186 -210 228 -32 17 -279 115 -550 219
-271 104 -489 192 -485 195 4 4 151 53 327 108 176 56 345 114 375 129 114 56
230 205 259 332 27 115 7 275 -47 373 -36 67 -52 85 -737 802 -451 472 -614
637 -651 657 -53 28 -137 41 -194 29z m325 -976 c93 -18 316 -83 329 -95 16
-15 -121 -436 -183 -565 -60 -123 -161 -277 -226 -347 -73 -77 -168 -103 -266
-75 -73 22 -114 58 -196 174 -161 228 -224 362 -299 643 -24 90 -41 167 -36
170 23 21 307 93 447 114 63 9 352 -3 430 -19z m366 -1035 l621 311 -7 -33
c-10 -47 -21 -64 -58 -91 -17 -13 -288 -160 -601 -327 -518 -277 -571 -302
-596 -293 -53 20 -1145 606 -1169 627 -25 22 -51 74 -51 101 0 11 187 -78 620
-295 l619 -310 622 310z m-1940 -1314 c11 -30 1 -112 -87 -699 -54 -367 -102
-663 -105 -659 -4 4 -30 80 -58 169 l-51 162 110 578 c61 318 114 585 116 593
5 14 46 -64 75 -144z m2808 -442 l112 -581 -52 -166 c-29 -92 -56 -164 -60
-159 -3 4 -50 304 -104 667 l-98 660 39 87 c22 48 42 84 45 80 4 -4 57 -268
118 -588z" />
    </g>
</svg>