<?xml version="1.0" standalone="no"?>
<!DOCTYPE svg PUBLIC "-//W3C//DTD SVG 20010904//EN"
 "http://www.w3.org/TR/2001/REC-SVG-20010904/DTD/svg10.dtd">
<svg version="1.0" xmlns="http://www.w3.org/2000/svg"
 width="524.000000pt" height="524.000000pt" viewBox="0 0 524.000000 524.000000"
 preserveAspectRatio="xMidYMid meet">

<g transform="translate(0.000000,524.000000) scale(0.100000,-0.100000)"
fill="currentColor" stroke="none">
<path d="M858 4896 c-53 -19 -92 -53 -300 -263 -199 -201 -228 -241 -228 -323
0 -25 9 -64 19 -86 12 -27 277 -321 745 -827 399 -433 726 -791 726 -797 0 -6
-323 -352 -717 -770 -485 -513 -727 -777 -746 -811 -34 -64 -35 -117 -3 -184
33 -68 420 -455 486 -484 64 -29 127 -27 188 7 33 17 316 276 813 745 420 394
767 716 771 715 4 -2 355 -325 779 -718 424 -393 792 -727 818 -742 32 -19 60
-28 91 -28 101 0 109 6 349 243 142 141 230 237 242 262 24 51 24 128 0 181
-12 26 -271 308 -745 812 -400 425 -726 776 -724 781 2 4 325 347 718 761 393
414 725 767 738 784 45 63 44 179 -1 242 -51 72 -433 467 -469 485 -21 11 -58
22 -82 25 -96 14 -53 52 -1583 -1382 l-121 -114 -784 731 c-496 465 -798 739
-823 750 -47 22 -105 23 -157 5z"/>
</g>
</svg>
