<?xml version="1.0" standalone="no"?>
<!DOCTYPE svg PUBLIC "-//W3C//DTD SVG 20010904//EN"
 "http://www.w3.org/TR/2001/REC-SVG-20010904/DTD/svg10.dtd">
<svg version="1.0" xmlns="http://www.w3.org/2000/svg"
 width="524.000000pt" height="524.000000pt" viewBox="0 0 524.000000 524.000000"
 preserveAspectRatio="xMidYMid meet">

<g transform="translate(0.000000,524.000000) scale(0.100000,-0.100000)"
fill="currentColor" stroke="none">
<path d="M1150 4673 c0 -434 -39 -701 -152 -1053 -132 -412 -310 -727 -647
-1149 -94 -118 -168 -218 -164 -221 5 -4 159 -71 343 -150 457 -195 627 -281
855 -433 207 -138 379 -280 560 -462 255 -255 376 -415 649 -861 l28 -47 42
67 c236 387 588 787 943 1074 366 296 696 488 1208 706 127 54 234 102 238
106 5 4 -61 95 -146 201 -183 231 -250 324 -346 483 -229 381 -381 820 -446
1286 -11 74 -18 224 -22 418 l-6 303 -26 -5 c-14 -3 -246 -41 -516 -85 -920
-150 -944 -150 -1998 25 -213 35 -390 64 -392 64 -3 0 -5 -120 -5 -267z m1290
-287 c148 -61 229 -78 395 -83 132 -4 169 -2 308 22 87 15 160 26 162 24 2 -2
-40 -40 -92 -84 -196 -166 -377 -368 -507 -566 -95 -147 -246 -454 -246 -502
0 -10 32 -18 123 -30 426 -58 640 -59 1080 -6 93 11 170 19 172 17 2 -2 -76
-93 -172 -203 -286 -326 -409 -488 -553 -725 -105 -174 -144 -269 -266 -640
-63 -195 -139 -427 -168 -515 l-53 -160 -9 280 c-12 369 -10 590 5 700 23 173
75 356 151 538 45 105 39 117 -69 146 -229 62 -716 45 -1145 -39 -83 -16 -151
-28 -153 -26 -2 1 30 41 70 87 312 358 554 787 696 1233 21 66 64 224 96 349
48 189 61 228 74 223 9 -2 54 -20 101 -40z"/>
</g>
</svg>
