<?xml version="1.0" standalone="no"?>
<!DOCTYPE svg PUBLIC "-//W3C//DTD SVG 20010904//EN"
 "http://www.w3.org/TR/2001/REC-SVG-20010904/DTD/svg10.dtd">
<svg version="1.0" xmlns="http://www.w3.org/2000/svg"
 width="524.000000pt" height="524.000000pt" viewBox="0 0 524.000000 524.000000"
 preserveAspectRatio="xMidYMid meet">

<g transform="translate(0.000000,524.000000) scale(0.100000,-0.100000)"
fill="currentColor" stroke="none">
<path d="M1493 5175 c-209 -46 -403 -244 -448 -460 -22 -106 -22 -4085 0
-4190 24 -113 77 -209 164 -296 90 -90 162 -132 267 -159 75 -19 112 -20 1133
-20 878 0 1067 3 1124 15 200 42 382 219 444 431 15 52 17 129 21 687 l3 627
-150 0 -150 0 -3 -607 c-3 -598 -3 -609 -25 -655 -26 -57 -94 -124 -153 -152
-45 -21 -49 -21 -1105 -21 l-1060 0 -57 28 c-32 16 -75 48 -97 73 -77 88 -71
-95 -69 2159 3 1990 3 2021 23 2060 27 55 97 122 153 148 l47 22 1055 0 1055
0 56 -26 c68 -32 124 -87 153 -148 20 -45 21 -61 24 -543 l3 -498 150 0 150 0
-3 518 c-4 451 -7 525 -21 576 -61 209 -228 374 -432 426 -76 19 -110 20
-1134 19 -848 0 -1068 -3 -1118 -14z"/>
<path d="M4260 3353 c-8 -3 -25 -15 -37 -26 -22 -19 -23 -28 -23 -168 0 -81
-3 -154 -6 -163 -6 -14 -95 -16 -913 -16 -569 0 -919 -4 -942 -10 -19 -6 -46
-22 -60 -36 -23 -25 -24 -32 -27 -191 -4 -180 2 -210 47 -240 24 -17 80 -18
956 -21 722 -2 931 -5 937 -15 4 -6 8 -78 8 -159 0 -80 3 -154 6 -163 16 -41
116 -61 170 -32 52 27 672 561 684 589 7 15 10 38 6 52 -7 29 -650 575 -699
593 -34 12 -82 15 -107 6z"/>
</g>
</svg>
