<svg width="52" height="52" viewBox="0 0 52 52" fill="currentColor" xmlns="http://www.w3.org/2000/svg">
<path fill-rule="evenodd" clip-rule="evenodd" d="M24.1043 9.28051L24.9585 9.66635L24.9984 10.5887L24.9984 10.5902L24.9991 10.6049L25.0007 10.6456C25.002 10.6805 25.0038 10.7303 25.0058 10.7919C25.0098 10.9149 25.0146 11.0866 25.0178 11.2823C25.0241 11.6618 25.0252 12.1756 24.9963 12.6013C24.877 14.3641 24.1264 15.6404 23.5541 16.6134C23.5258 16.6615 23.4979 16.709 23.4705 16.7557C22.8747 17.7728 22.4998 18.4893 22.4998 19.5C22.4998 20.7411 23.1256 22.4455 23.8026 23.8729C24.4966 25.3361 24.9998 26.9924 24.9998 28.748V28.748C24.9999 33.9025 24.4735 39.0436 23.4288 44.0911L23.0481 45.9304L23.0257 45.9233L22.968 45.9047C22.9182 45.8887 22.846 45.8652 22.7537 45.8347C22.5692 45.7738 22.3042 45.6848 21.977 45.571C21.3235 45.3436 20.4182 45.0157 19.4097 44.6131C17.4292 43.8224 14.9156 42.6911 13.1631 41.4144C10.6892 39.612 8.82199 37.8547 7.40496 35.8082C5.9835 33.7553 5.06869 31.4889 4.3964 28.7387C3.80428 26.3166 4.19737 24.6645 4.5709 23.1112L4.58096 23.0694C4.92942 21.6207 5.27612 20.1794 4.99427 17.8152C4.9039 17.0572 4.65893 16.2573 4.34097 15.3882C4.24562 15.1275 4.13757 14.8459 4.02616 14.5555C3.79654 13.9571 3.55263 13.3214 3.3761 12.7552C3.1093 11.8994 2.87569 10.864 3.07424 9.84015C3.2961 8.69619 4.00602 7.79329 5.14436 7.18257C6.93978 6.21933 9.07509 5.95028 11.1376 6.00723C13.2172 6.06465 15.3554 6.45773 17.2548 6.9396C19.1608 7.42313 20.8689 8.00712 22.0984 8.46883C22.7145 8.70018 23.2136 8.90207 23.5612 9.0472C23.735 9.11979 23.8711 9.17827 23.9652 9.21924C24.0123 9.23973 24.1043 9.28051 24.1043 9.28051Z" fill="currentColor"/>
<path fill-rule="evenodd" clip-rule="evenodd" d="M29.9386 9.28051L29.0843 9.66635L29.0445 10.5887L29.0444 10.5902L29.0438 10.6049L29.0422 10.6456C29.0408 10.6805 29.039 10.7303 29.037 10.7919C29.033 10.9149 29.0282 11.0866 29.025 11.2823C29.0188 11.6618 29.0177 12.1756 29.0465 12.6013C29.1659 14.3641 29.9165 15.6404 30.4887 16.6134C30.5171 16.6615 30.545 16.709 30.5723 16.7557C31.1681 17.7728 31.5431 18.4893 31.5431 19.5C31.5431 20.7411 30.9172 22.4455 30.2402 23.8729C29.5462 25.3361 29.0431 26.9924 29.0431 28.748V28.748C29.0429 33.9025 29.5693 39.0436 30.6141 44.0911L30.9947 45.9304L31.0172 45.9233L31.0749 45.9047C31.1247 45.8887 31.1969 45.8652 31.2891 45.8347C31.4736 45.7738 31.7386 45.6848 32.0658 45.571C32.7194 45.3436 33.6246 45.0157 34.6332 44.6131C36.6136 43.8224 39.1273 42.6911 40.8797 41.4144C43.3536 39.612 45.2209 37.8547 46.6379 35.8082C48.0593 33.7553 48.9742 31.4889 49.6464 28.7387C50.2386 26.3166 49.8455 24.6645 49.472 23.1112L49.4619 23.0694C49.1134 21.6207 48.7667 20.1794 49.0486 17.8152C49.1389 17.0572 49.3839 16.2573 49.7019 15.3882C49.7972 15.1275 49.9053 14.8459 50.0167 14.5555C50.2463 13.9571 50.4902 13.3214 50.6668 12.7552C50.9335 11.8994 51.1672 10.864 50.9686 9.84015C50.7467 8.69619 50.0368 7.79329 48.8985 7.18257C47.1031 6.21933 44.9678 5.95028 42.9052 6.00723C40.8257 6.06465 38.6874 6.45773 36.788 6.9396C34.882 7.42313 33.1739 8.00712 31.9445 8.46883C31.3284 8.70018 30.8292 8.90207 30.4817 9.0472C30.3078 9.11979 30.1717 9.17827 30.0776 9.21924C30.0306 9.23973 29.9386 9.28051 29.9386 9.28051Z" fill="currentColor"/>
</svg>
