<?xml version="1.0" standalone="no"?>
<!DOCTYPE svg PUBLIC "-//W3C//DTD SVG 20010904//EN"
 "http://www.w3.org/TR/2001/REC-SVG-20010904/DTD/svg10.dtd">
<svg version="1.0" xmlns="http://www.w3.org/2000/svg"
 width="524.000000pt" height="524.000000pt" viewBox="0 0 524.000000 524.000000"
 preserveAspectRatio="xMidYMid meet">

<g transform="translate(0.000000,524.000000) scale(0.100000,-0.100000)"
fill="currentColor" stroke="none">
<path d="M242 4503 c140 -185 272 -423 304 -553 28 -111 15 -238 -61 -585
-150 -690 -168 -932 -79 -1113 87 -178 450 -481 1215 -1014 235 -164 848 -568
862 -568 4 0 6 642 5 1426 l-3 1426 -70 22 c-253 80 -388 242 -411 490 -8 86
14 207 52 294 13 30 21 59 17 63 -5 4 -90 46 -190 93 l-182 86 -755 0 -755 0
51 -67z"/>
<path d="M3343 4480 c-101 -49 -183 -91 -183 -93 0 -3 11 -29 24 -58 37 -85
51 -157 50 -259 -1 -161 -47 -276 -150 -377 -69 -68 -187 -133 -281 -154 l-53
-12 0 -1429 c0 -785 3 -1428 8 -1428 4 0 118 73 254 163 1087 714 1678 1171
1813 1401 99 169 84 418 -66 1111 -85 390 -96 506 -59 626 43 145 135 313 270
495 39 52 70 96 70 99 0 3 -341 5 -757 4 l-758 -1 -182 -88z"/>
</g>
</svg>
