<?xml version="1.0" standalone="no"?>
<!DOCTYPE svg PUBLIC "-//W3C//DTD SVG 20010904//EN"
 "http://www.w3.org/TR/2001/REC-SVG-20010904/DTD/svg10.dtd">
<svg version="1.0" xmlns="http://www.w3.org/2000/svg"
 width="524.000000pt" height="524.000000pt" viewBox="0 0 524.000000 524.000000"
 preserveAspectRatio="xMidYMid meet">

<g transform="translate(0.000000,524.000000) scale(0.100000,-0.100000)"
fill="currentColor" stroke="none">
<path d="M1853 5040 c-18 -4 -40 -14 -49 -21 -43 -36 -44 -45 -44 -763 l0
-685 -24 -28 -24 -28 -712 -5 -712 -5 -29 -33 c-26 -29 -29 -40 -29 -97 0 -57
3 -68 29 -97 l29 -33 842 0 842 0 29 33 29 32 0 833 c0 893 2 860 -48 886 -27
14 -94 20 -129 11z"/>
<path d="M3280 5040 c-19 -5 -45 -20 -57 -35 l-23 -26 0 -836 0 -835 34 -34
34 -34 837 2 837 3 30 34 c28 32 30 37 26 102 -3 59 -8 73 -31 97 l-27 27
-709 5 -709 5 -26 24 -25 24 -3 701 c-3 649 -4 704 -20 729 -10 14 -26 30 -35
35 -29 15 -95 21 -133 12z"/>
<path d="M264 2030 c-12 -4 -31 -21 -44 -37 -19 -24 -21 -37 -18 -96 3 -57 8
-71 31 -95 l27 -27 709 -5 709 -5 26 -24 26 -24 0 -676 c0 -372 5 -694 10
-715 5 -21 17 -48 28 -58 46 -47 167 -42 210 7 l22 26 0 836 0 835 -34 34 -34
34 -823 -1 c-453 0 -834 -4 -845 -9z"/>
<path d="M3263 2030 c-13 -5 -32 -24 -43 -42 -20 -32 -20 -50 -20 -856 l0
-822 34 -37 c32 -35 36 -37 100 -37 62 0 69 3 99 32 l32 32 2 698 c2 524 6
703 15 720 28 53 14 52 759 52 l691 0 34 34 c32 32 34 38 34 104 0 68 -1 71
-35 101 l-36 31 -822 -1 c-464 0 -832 -4 -844 -9z"/>
</g>
</svg>
