<?xml version="1.0" standalone="no"?>
<!DOCTYPE svg PUBLIC "-//W3C//DTD SVG 20010904//EN"
 "http://www.w3.org/TR/2001/REC-SVG-20010904/DTD/svg10.dtd">
<svg version="1.0" xmlns="http://www.w3.org/2000/svg"
 width="524.000000pt" height="524.000000pt" viewBox="0 0 524.000000 524.000000"
 preserveAspectRatio="xMidYMid meet">

<g transform="translate(0.000000,524.000000) scale(0.100000,-0.100000)"
fill="currentColor" stroke="none">
<path d="M293 5040 c-13 -5 -32 -24 -43 -42 -20 -32 -20 -50 -20 -856 l0 -822
34 -37 c32 -35 36 -37 100 -37 62 0 69 3 99 32 l32 32 2 698 c2 524 6 703 15
720 28 53 14 52 759 52 l691 0 34 34 c32 32 34 38 34 104 0 68 -1 71 -35 101
l-36 31 -822 -1 c-464 0 -832 -4 -844 -9z"/>
<path d="M3237 5019 c-55 -42 -58 -160 -6 -211 l27 -28 679 0 c434 0 691 -4
715 -10 20 -6 46 -22 58 -37 20 -25 20 -36 20 -715 0 -759 -2 -731 62 -764 49
-25 141 -15 176 19 l27 27 3 835 2 834 -31 35 -31 36 -838 0 c-829 0 -838 0
-863 -21z"/>
<path d="M265 2031 c-11 -5 -29 -19 -40 -31 -20 -22 -20 -38 -23 -856 l-2
-833 31 -35 31 -36 838 0 c829 0 838 0 863 21 55 42 58 160 6 211 l-27 28
-679 0 c-434 0 -691 4 -715 10 -20 6 -46 22 -58 37 -20 25 -20 36 -20 715 0
756 2 731 -60 763 -31 16 -112 19 -145 6z"/>
<path d="M4772 2006 l-37 -34 -5 -711 c-6 -792 0 -734 -76 -751 -21 -5 -343
-10 -715 -10 l-677 0 -31 -35 c-27 -31 -31 -43 -31 -95 0 -52 4 -64 31 -95
l31 -35 840 0 840 0 29 29 29 29 0 837 0 837 -34 34 c-31 31 -39 34 -95 34
-56 0 -65 -3 -99 -34z"/>
</g>
</svg>
