<?xml version="1.0" standalone="no"?>
<!DOCTYPE svg PUBLIC "-//W3C//DTD SVG 20010904//EN"
 "http://www.w3.org/TR/2001/REC-SVG-20010904/DTD/svg10.dtd">
<svg version="1.0" xmlns="http://www.w3.org/2000/svg"
 width="524.000000pt" height="524.000000pt" viewBox="0 0 524.000000 524.000000"
 preserveAspectRatio="xMidYMid meet">

<g transform="translate(0.000000,524.000000) scale(0.100000,-0.100000)"
fill="currentColor" stroke="none">
<path d="M2367 4905 c-288 -36 -514 -102 -754 -220 -686 -337 -1151 -972
-1269 -1735 -25 -160 -25 -500 0 -660 116 -750 572 -1383 1241 -1722 329 -167
652 -243 1035 -243 221 0 342 14 545 62 311 73 654 243 908 452 91 74 270 255
343 346 250 313 418 701 480 1110 25 164 25 483 0 650 -114 762 -586 1408
-1269 1740 -232 112 -421 171 -677 210 -145 22 -447 28 -583 10z m573 -454
c746 -132 1336 -702 1496 -1444 86 -403 35 -820 -146 -1193 -385 -794 -1264
-1204 -2125 -993 -887 218 -1488 1076 -1394 1990 73 715 567 1338 1244 1568
122 41 271 74 405 91 118 14 388 4 520 -19z"/>
<path d="M2465 4120 c-208 -20 -362 -86 -485 -211 -115 -116 -193 -264 -275
-520 -34 -106 -36 -119 -24 -144 20 -41 58 -65 114 -71 74 -9 92 10 178 190
149 308 257 419 460 473 84 23 298 22 386 -1 212 -55 346 -195 359 -376 8
-111 -23 -164 -205 -352 -260 -268 -380 -456 -442 -692 -30 -113 -46 -316 -36
-460 7 -113 9 -121 35 -148 26 -25 35 -28 95 -28 57 0 69 3 90 25 14 13 25 32
26 42 1 10 2 99 3 198 2 203 16 281 71 402 76 166 237 360 425 513 224 182
281 279 280 478 -1 198 -61 354 -179 465 -86 81 -148 118 -266 157 -165 54
-413 78 -610 60z"/>
<path d="M2524 1511 c-42 -18 -54 -50 -54 -139 0 -46 5 -92 10 -103 18 -33 64
-49 140 -49 126 0 155 33 149 169 -6 113 -19 125 -137 128 -48 2 -97 -1 -108
-6z"/>
</g>
</svg>
