<svg width="52" height="52" viewBox="0 0 52 52" fill="currentColor" xmlns="http://www.w3.org/2000/svg">
<path fill-rule="evenodd" clip-rule="evenodd" d="M26 48C38.1503 48 48 38.1503 48 26C48 13.8497 38.1503 4 26 4C13.8497 4 4 13.8497 4 26C4 38.1503 13.8497 48 26 48ZM26 52C40.3594 52 52 40.3594 52 26C52 11.6406 40.3594 0 26 0C11.6406 0 0 11.6406 0 26C0 40.3594 11.6406 52 26 52ZM21.8089 15.1299L21.5454 15.3022C19.0317 16.9458 18.874 20.5718 21.2356 22.4274C22.1042 23.1098 22.2551 24.3671 21.5726 25.2356C20.8902 26.1042 19.6329 26.2551 18.7644 25.5726C14.2506 22.0261 14.5519 15.0957 19.3564 11.9543L19.62 11.782C23.4958 9.24777 28.5042 9.24777 32.3801 11.782L33.1496 12.2851C37.7056 15.2641 37.9913 21.8361 33.711 25.1992C33.2888 25.5309 32.834 25.8191 32.3537 26.0592L31.8138 26.3292C29.4764 27.4978 28 29.8868 28 32.5C28 33.6046 27.1046 34.5 26 34.5C24.8954 34.5 24 33.6046 24 32.5C24 28.3717 26.3325 24.5977 30.0249 22.7515L30.5649 22.4815C30.8037 22.3621 31.0298 22.2188 31.2397 22.0539C33.3679 20.3817 33.2258 17.1141 30.9606 15.633L30.1911 15.1299C27.645 13.4651 24.355 13.4651 21.8089 15.1299ZM26 42C27.6569 42 29 40.6569 29 39C29 37.3431 27.6569 36 26 36C24.3431 36 23 37.3431 23 39C23 40.6569 24.3431 42 26 42Z" fill="currentColor"/>
</svg>
