<?xml version="1.0" standalone="no"?>
<!DOCTYPE svg PUBLIC "-//W3C//DTD SVG 20010904//EN"
 "http://www.w3.org/TR/2001/REC-SVG-20010904/DTD/svg10.dtd">
<svg version="1.0" xmlns="http://www.w3.org/2000/svg"
 width="260.000000pt" height="262.000000pt" viewBox="0 0 260.000000 262.000000"
 preserveAspectRatio="xMidYMid meet">

<g transform="translate(0.000000,262.000000) scale(0.100000,-0.100000)"
fill="currentColor" stroke="none">
<path d="M2338 2523 c-181 -175 -256 -325 -258 -515 0 -59 7 -78 31 -78 28 0
36 26 41 132 4 89 7 102 47 183 36 74 62 107 157 205 63 64 114 124 114 133 0
12 -19 27 -36 27 -3 0 -46 -39 -96 -87z"/>
<path d="M365 2073 c-84 -6 -316 -43 -336 -54 -23 -12 -25 -45 -3 -53 9 -3 19
-4 23 -2 3 2 72 14 151 26 129 20 171 22 375 16 249 -6 319 -15 526 -69 162
-43 290 -88 423 -151 87 -40 102 -45 114 -32 23 23 8 43 -55 74 -164 83 -473
182 -678 217 -78 14 -414 37 -470 33 -11 -1 -42 -3 -70 -5z"/>
<path d="M2058 1744 c-169 -30 -353 -123 -448 -227 -45 -48 -99 -166 -116
-254 -26 -128 -2 -408 47 -562 81 -254 343 -551 556 -631 124 -46 173 -55 313
-54 79 0 146 5 163 12 25 11 27 15 27 76 l0 65 -42 -16 c-61 -23 -242 -22
-327 1 -135 37 -262 122 -369 245 -169 197 -229 342 -251 606 -14 178 0 274
56 376 36 68 95 118 195 167 218 107 428 115 663 23 l75 -29 0 68 0 68 -80 27
c-162 54 -311 67 -462 39z"/>
<path d="M2225 1295 c-48 -47 -19 -115 49 -115 64 0 90 79 40 119 -35 27 -59
26 -89 -4z"/>
<path d="M1845 1095 c-30 -30 -31 -54 -4 -89 40 -50 119 -24 119 40 0 68 -68
97 -115 49z"/>
<path d="M2558 902 c-47 -97 -133 -203 -195 -238 -59 -33 -73 -50 -73 -86 0
-36 32 -68 68 -68 41 0 120 51 185 118 l57 61 0 145 c0 80 -1 146 -2 145 -2 0
-20 -35 -40 -77z"/>
</g>
</svg>
