<?xml version="1.0" encoding="UTF-8" standalone="no" ?>
<!DOCTYPE svg PUBLIC "-//W3C//DTD SVG 1.1//EN" "http://www.w3.org/Graphics/SVG/1.1/DTD/svg11.dtd">
<svg xmlns="http://www.w3.org/2000/svg" xmlns:xlink="http://www.w3.org/1999/xlink" version="1.1" width="524" height="524" viewBox="0 0 524 524" xml:space="preserve">
<desc>Created with Fabric.js 5.3.0</desc>
<defs>
</defs>
<g transform="matrix(1.1099126955 0 0 1.1099126955 262 262)" id="LR8J5WL7q7WaHHwjsEtRr"  >
<path style="stroke: rgb(89,7,19); stroke-width: 0; stroke-dasharray: none; stroke-linecap: butt; stroke-dashoffset: 0; stroke-linejoin: miter; stroke-miterlimit: 4; fill: rgb(253,255,210); fill-rule: nonzero; opacity: 1;"  transform=" translate(0, 0)" d="M 0 -196.79111 C 108.62869 -196.79111 196.79111 -108.62869 196.79111 0 C 196.79111 108.62869 108.62869 196.79111 0 196.79111 C -108.62869 196.79111 -196.79111 108.62869 -196.79111 0 C -196.79111 -108.62869 -108.62869 -196.79111 0 -196.79111 z" stroke-linecap="round" />
</g>
<g transform="matrix(2.1124684223 0.0368732735 -0.0368732735 2.1124684223 173.1817410487 300.4847747585)" id="nNVagvimyN8t6aN2p9MNI"  >
<path style="stroke: rgb(0,0,0); stroke-width: 4; stroke-dasharray: none; stroke-linecap: butt; stroke-dashoffset: 0; stroke-linejoin: miter; stroke-miterlimit: 4; fill: none; fill-rule: nonzero; opacity: 1;"  transform=" translate(0, 0)" d="M -17.70611 -50.70376 C -17.70611 -50.70376 -22.08381 -37.73069 -17.25957 -25.121240000000004 C -15.13583 -19.570280000000004 -5.005319999999999 -8.012180000000004 -0.15315000000000012 11.242839999999998 C 4.69903 30.497859999999996 19.52589 50.70376999999999 19.52589 50.70376999999999" stroke-linecap="round" />
</g>
<g transform="matrix(1.3683877436 0 0 1.3683877436 314.7282870627 428.1426241841)" id="U_ilII9tCMKMKeaRAbcYl"  >
<path style="stroke: rgb(0,0,0); stroke-width: 1; stroke-dasharray: none; stroke-linecap: butt; stroke-dashoffset: 0; stroke-linejoin: miter; stroke-miterlimit: 4; fill: rgb(255,255,255); fill-opacity: 0; fill-rule: nonzero; opacity: 1;"  transform=" translate(0, 0)" d="M 0 0" stroke-linecap="round" />
</g>
<g transform="matrix(1.3683877436 0 0 1.3683877436 246.7699706276 350.5928509257)" id="lTns_qSvudATGiUnxiKH2"  >
<path style="stroke: rgb(0,0,0); stroke-width: 6; stroke-dasharray: none; stroke-linecap: butt; stroke-dashoffset: 0; stroke-linejoin: miter; stroke-miterlimit: 4; fill: rgb(255,255,255); fill-opacity: 0; fill-rule: nonzero; opacity: 1;"  transform=" translate(0, 0)" d="M 50.16306 56.17237 C 50.16306 56.17237 31.67865 34.00044 24.458820000000003 3.600200000000001 C 17.23899 -26.80004 13.466520000000003 -35.30629 2.420270000000002 -47.37283 C -8.625979999999998 -59.43937 -23.80445 -59.56189 -22.839059999999996 -44.83928 C -21.873659999999997 -30.116680000000002 -9.999739999999996 -32.241080000000004 -8.474569999999996 -42.90849 C -6.949399999999996 -53.575900000000004 -30.274649999999998 -53.60488 -40.77870999999999 -41.05529 C -53.57293999999999 -25.76955 -49.57005999999999 -2.789609999999996 -49.57005999999999 -2.789609999999996" stroke-linecap="round" />
</g>
<g transform="matrix(1.3683877436 0 0 1.3683877436 265.2035762162 178.317805859)" id="Z1Umh1Sfz_QlfCLdnkHpm"  >
<path style="stroke: rgb(0,0,0); stroke-width: 6; stroke-dasharray: none; stroke-linecap: butt; stroke-dashoffset: 0; stroke-linejoin: miter; stroke-miterlimit: 4; fill: rgb(255,255,255); fill-opacity: 0; fill-rule: nonzero; opacity: 1;"  transform=" translate(0, 0)" d="M -61.5411 -71.83174 C -61.5411 -71.83174 -21.57609 -9.18799 -19.85736 17.26113000000001 C -18.13863 43.710260000000005 -12.53123 50.58861000000001 -2.3411299999999997 61.92766000000001 C 7.84897 73.26672 33.714150000000004 78.61237000000001 30.136789999999998 57.08316000000001 C 26.55943 35.55394000000001 0.6225999999999985 49.011790000000005 13.401649999999997 61.153850000000006 C 26.180699999999995 73.29591 43.91598 70.61543 53.282529999999994 58.78508000000001 C 59.469539999999995 50.97062000000001 63.01423 32.10342000000001 60.952589999999994 17.26113000000001 C 59.8931 9.63357000000001 46.23201999999999 -11.173259999999992 46.23201999999999 -11.173259999999992" stroke-linecap="round" />
</g>
<g transform="matrix(1.3683877436 0 0 1.3683877436 359.2891984122 252.4769307253)" id="NoiwG2RvbK4VZ1BD2ACNE"  >
<path style="stroke: rgb(0,0,0); stroke-width: 6; stroke-dasharray: none; stroke-linecap: butt; stroke-dashoffset: 0; stroke-linejoin: miter; stroke-miterlimit: 4; fill: rgb(255,255,255); fill-opacity: 0; fill-rule: nonzero; opacity: 1;"  transform=" translate(0, 0)" d="M -26.88862 -69.57444 C -26.88862 -69.57444 -9.54373 -51.825979999999994 -3.4537799999999983 -23.779829999999997 C 2.6361700000000017 4.266320000000004 21.064100000000003 17.047510000000003 24.34694 37.291290000000004 C 27.62978 57.535070000000005 27.84027 60.92087000000001 24.34694 69.57443" stroke-linecap="round" />
</g>
<g transform="matrix(1.3683877436 0 0 1.3683877436 138.596882238 192.7217904465)" id="_5tQK10rIKxHIYGKzP-DK"  >
<path style="stroke: rgb(0,0,0); stroke-width: 6; stroke-dasharray: none; stroke-linecap: butt; stroke-dashoffset: 0; stroke-linejoin: miter; stroke-miterlimit: 4; fill: rgb(255,255,255); fill-opacity: 0; fill-rule: nonzero; opacity: 1;"  transform=" translate(0, 0)" d="M 30.48143 -85.76909 C 30.48143 -85.76909 31.89683 -63.73997000000001 -0.08190000000000097 -1.0333800000000082 C -32.06063 61.67320999999999 -30.47795 85.76908999999999 -30.47795 85.76908999999999" stroke-linecap="round" />
</g>
<g transform="matrix(1.3683877436 0 0 1.3683877436 395.160715661 294.4132962971)" id="2vextGauwxmw1Z19uMiee"  >
<path style="stroke: rgb(0,0,0); stroke-width: 6; stroke-dasharray: none; stroke-linecap: butt; stroke-dashoffset: 0; stroke-linejoin: miter; stroke-miterlimit: 4; fill: rgb(255,255,255); fill-opacity: 0; fill-rule: nonzero; opacity: 1;"  transform=" translate(0, 0)" d="M -30.0172 97.22766 C -30.0172 97.22766 -0.6072999999999986 52.49302 6.832409999999999 6.644750000000002 C 14.27212 -39.20352 30.0172 -97.22765 30.0172 -97.22765" stroke-linecap="round" />
</g>
<g transform="matrix(1.3681793316 -0.0238816591 0.0238816591 1.3681793316 173.1817410487 301.453302604)" id="VheepmwQ3mqkJ_4whAIqF"  >
<path style="stroke: rgb(0,0,0); stroke-width: 1; stroke-dasharray: none; stroke-linecap: butt; stroke-dashoffset: 0; stroke-linejoin: miter; stroke-miterlimit: 4; fill: rgb(255,255,255); fill-opacity: 0; fill-rule: nonzero; opacity: 1;"  transform=" translate(0, 0)" d="M -24.22989 -79.24203 C -24.22989 -79.24203 -31.68399 -59.45971 -24.91935 -39.74263 C -21.94141 -31.062739999999998 -6.93224 -12.682029999999997 -0.4826000000000015 17.291070000000005 C 5.967039999999998 47.26417000000001 27.75697 79.24202 27.75697 79.24202" stroke-linecap="round" />
</g>
<g transform="matrix(1.3683877436 0 0 1.3683877436 310.1958831199 90.2650404129)" id="gHTZnpnq5IJdIE2hI1gZV"  >
<path style="stroke: rgb(0,0,0); stroke-width: 6; stroke-dasharray: none; stroke-linecap: butt; stroke-dashoffset: 0; stroke-linejoin: miter; stroke-miterlimit: 4; fill: rgb(127,145,114); fill-rule: nonzero; opacity: 1;"  transform=" translate(0, 0)" d="M -45.63009 -48.46402 C -71.23924 -37.592209999999994 -84.39723000000001 -27.16596 -91.0426 -20.02022 C -95.11241 -15.64397 -95.00943 -15.681759999999997 -96.28281999999999 -13.122399999999999 L -96.28281999999999 -13.122399999999999 C -97.04828999999998 -11.583889999999998 -96.89588999999998 -9.747539999999999 -95.88725999999998 -8.356269999999999 C -94.99266999999999 -7.122289999999999 -94.92754999999998 -7.029949999999999 -92.98836999999999 -4.760719999999999 C -83.14648 6.756270000000001 -56.45910999999999 32.51993 -4.814429999999987 47.44934 C 40.013500000000015 60.408159999999995 69.71393000000002 59.88649 84.74308 58.02861 C 87.42240000000001 57.6974 87.46851000000001 57.72846 88.78423000000001 57.435990000000004 L 88.78423000000001 57.435990000000004 C 93.25482000000001 56.442220000000006 96.51118000000001 52.585060000000006 96.74106 48.011120000000005 C 96.7878 47.081140000000005 96.76332000000001 46.95405 96.71653 45.189550000000004 C 96.37649 32.365680000000005 93.34479 9.545120000000004 78.45745000000001 -13.794399999999996 C 55.89634000000001 -49.16439999999999 31.725260000000006 -54.28624 31.725260000000006 -54.28624 C 31.725260000000006 -54.28624 0.6565900000000049 -68.11402 -45.63007999999999 -48.46402 z" stroke-linecap="round" />
</g>
<g transform="matrix(1.3683877436 0 0 1.3683877436 328.4669009299 67.6168021759)" id="pjGLICIK2KYAQZmLrkW6r"  >
<path style="stroke: rgb(0,0,0); stroke-width: 6; stroke-dasharray: none; stroke-linecap: butt; stroke-dashoffset: 0; stroke-linejoin: miter; stroke-miterlimit: 4; fill: rgb(255,255,255); fill-opacity: 0; fill-rule: nonzero; opacity: 1;"  transform=" translate(0, 0)" d="M -75.76065 -23.86792 C -75.76065 -23.86792 -46.62034 -0.5840900000000033 -7.639020000000002 13.971459999999997 C 31.342299999999994 28.527019999999997 75.76065 22.727159999999998 75.76065 22.727159999999998" stroke-linecap="round" />
</g>
<g transform="matrix(1.3683877436 0 0 1.3683877436 338.1147326335 33.6351963031)" id="6GcjH33Y1gjhuv3nw95Sz"  >
<path style="stroke: rgb(0,0,0); stroke-width: 6; stroke-dasharray: none; stroke-linecap: butt; stroke-dashoffset: 0; stroke-linejoin: miter; stroke-miterlimit: 4; fill: rgb(255,255,255); fill-opacity: 0; fill-rule: nonzero; opacity: 1;"  transform=" translate(0, 0)" d="M -47.43473 -13.5536 C -47.43473 -13.5536 -25.095460000000003 2.0538000000000007 -4.157340000000005 8.45825 C 16.780779999999996 14.86269 47.434729999999995 13.412749999999999 47.434729999999995 13.412749999999999" stroke-linecap="round" />
</g>
<g transform="matrix(1.3683877436 0 0 1.3683877436 220.1409217368 408.996229633)" id="TFOksIogf5hep4xTV0XNW"  >
<path style="stroke: rgb(0,0,0); stroke-width: 6; stroke-dasharray: none; stroke-linecap: butt; stroke-dashoffset: 0; stroke-linejoin: miter; stroke-miterlimit: 4; fill: rgb(127,145,114); fill-rule: nonzero; opacity: 1;"  transform=" translate(0, 0)" d="M -90.65408 -77.09098 C -90.65408 -77.09098 -74.40959 -28.50936 -9.055149999999998 -2.309359999999998 C 56.29929 23.89064 100.89703 9.077910000000001 100.89703 9.077910000000001 C 100.89703 9.077910000000001 61.45147 101.65124 -37.08964 70.79347 C -135.63075 39.935689999999994 -90.65408 -77.09097000000001 -90.65408 -77.09097000000001 z" stroke-linecap="round" />
</g>
<g transform="matrix(1.3683877436 0 0 1.3683877436 201.9309717568 429.5750721457)" id="ZYvLnftOSJCDg8-dJCVMZ"  >
<path style="stroke: rgb(0,0,0); stroke-width: 6; stroke-dasharray: none; stroke-linecap: butt; stroke-dashoffset: 0; stroke-linejoin: miter; stroke-miterlimit: 4; fill: rgb(255,255,255); fill-opacity: 0; fill-rule: nonzero; opacity: 1;"  transform=" translate(0, 0)" d="M -88.08943 -33.27163 C -88.08943 -33.27163 -62.125609999999995 3.6717299999999966 -9.471529999999987 22.14982 C 43.18254000000001 40.62792 88.08944000000001 30.50408 88.08944000000001 30.50408" stroke-linecap="round" />
</g>
<g transform="matrix(1.3683877436 0 0 1.3683877436 172.3084077154 476.2976161987)" id="j8mGKRAC2kKBEnk6reNSW"  >
<path style="stroke: rgb(0,0,0); stroke-width: 6; stroke-dasharray: none; stroke-linecap: butt; stroke-dashoffset: 0; stroke-linejoin: miter; stroke-miterlimit: 4; fill: rgb(255,255,255); fill-opacity: 0; fill-rule: nonzero; opacity: 1;"  transform=" translate(0, 0)" d="M -57.60281 -25.15017 C -57.60281 -25.15017 -30.843749999999996 -0.7852800000000002 -4.995809999999999 9.533890000000003 C 20.852130000000002 19.853070000000002 57.60282 25.150170000000003 57.60282 25.150170000000003" stroke-linecap="round" />
</g>
</svg>