<svg width="52" height="52" viewBox="0 0 52 52" fill="none" xmlns="http://www.w3.org/2000/svg">
<path d="M46.1633 38.8191C46.1633 38.8191 37.5494 41.5504 31.9286 41.9256C29.421 42.093 28.0105 41.9256 25.5 41.9256C22.9895 41.9256 21.579 42.093 19.0714 41.9256C13.4506 41.5504 4.83673 38.8191 4.83673 38.8191C4.83673 38.8191 5.47353 34.8751 5.29592 32.3476C5.05284 28.8883 3 24.0377 3 24.0377C3 24.0377 5.89664 26.2882 7.59184 25.332C9.77975 24.0978 10.5 20 10.5 20C10.5 20 13.5058 26.0243 17.5 25.332C19.886 24.9184 20.8269 23.3583 22 21.3158C22.9708 19.6255 23.2704 16.4887 23.2704 16.4887L25.0408 11.6616L25.5 10L25.9592 11.6616L27.7296 16.4887C27.7296 16.4887 28.0292 19.6255 29 21.3158C30.1731 23.3583 31.3881 24.6686 33.5 25.332C37.5515 26.6047 40.5 20 40.5 20C40.5 20 41.2203 24.0978 43.4082 25.332C45.1034 26.2882 48 24.0377 48 24.0377C48 24.0377 45.9472 28.8883 45.7041 32.3476C45.5265 34.8751 46.1633 38.8191 46.1633 38.8191Z" fill="currentColor"/>
</svg>
