<svg width="52" height="52" viewBox="0 0 52 52" fill="none" xmlns="http://www.w3.org/2000/svg">
<path fill-rule="evenodd" clip-rule="evenodd" d="M33.2284 2H48C49.1046 2 50 2.89543 50 4V18.7716C50 19.302 49.7893 19.8107 49.4142 20.1858L21.7213 47.8787C20.5497 49.0503 18.6502 49.0502 17.4787 47.8787L4.12132 34.5213C2.94974 33.3497 2.94974 31.4503 4.12132 30.2787L31.8142 2.58579C32.1893 2.21071 32.698 2 33.2284 2ZM47.3333 8C47.3333 9.84095 45.8409 11.3333 44 11.3333C42.159 11.3333 40.6667 9.84095 40.6667 8C40.6667 6.15905 42.159 4.66667 44 4.66667C45.8409 4.66667 47.3333 6.15905 47.3333 8ZM30.7334 14.6437L36.9045 20.8148L40.6771 17.0422L40.0142 16.3793L36.9889 19.4046L34.8916 17.3074L37.6759 14.5232L37.013 13.8602L34.2287 16.6445L32.1436 14.5593L35.1207 11.5822L34.4577 10.9193L30.7334 14.6437ZM23.1845 22.1926L24.0764 21.3007L31.2961 24.326L31.3684 24.2537L28.3431 17.0339L29.235 16.142L35.4062 22.3131L34.7071 23.0122L30.0185 18.3236L29.9582 18.3839L32.7183 25.0009L32.0434 25.6759L25.4263 22.9158L25.366 22.976L30.0546 27.6646L29.3556 28.3637L23.1845 22.1926ZM23.8745 33.8448L23.0911 34.6282L19.1859 26.1912L19.9573 25.4198L28.3944 29.3249L27.6109 30.1084L25.2428 28.9811L22.7472 31.4767L23.8745 33.8448ZM24.3446 28.5535L22.3196 30.5785L20.5238 26.8059L20.572 26.7577L24.3446 28.5535ZM22.1261 35.5932L15.9549 29.4221L15.2197 30.1574L20.0771 35.0147L20.0168 35.075L11.7846 33.5924L11.0614 34.3156L17.2326 40.4867L17.9798 39.7395L13.1346 34.8942L13.1948 34.8339L21.4029 36.3164L22.1261 35.5932Z" fill="currentColor"/>
</svg>
