<svg width="52" height="52" viewBox="0 0 52 52" fill="currentColor" xmlns="http://www.w3.org/2000/svg">
<path fill-rule="evenodd" clip-rule="evenodd" d="M35.1454 33.6499C33.8477 32.9589 33.5333 31.1835 34.5286 30.0819L39.6999 24.3589C40.1323 23.8804 40.8679 23.8804 41.3002 24.3589L46.4859 30.0979C47.4769 31.1946 47.1717 32.964 45.8747 33.6418L45.6538 33.7572L43.0769 34.9815L47.036 36.755C47.6432 37.027 48.0981 37.5679 48.273 38.2259L49.9606 44.5762C50.1511 45.293 49.6275 46 48.9062 46H32.0939C31.3726 46 30.849 45.293 31.0395 44.5762L32.7271 38.2259C32.902 37.5679 33.3569 37.027 33.9642 36.755L37.9232 34.9815C37.9232 34.9815 36.33 34.2844 35.3463 33.7572C35.281 33.7222 35.2139 33.6864 35.1454 33.6499ZM41.4371 27.8807C41.8604 27.9739 42.3903 28.2345 42.7311 28.4188C42.94 28.5317 43.0426 28.7748 42.9828 29.0098C42.7073 30.0912 41.8374 33.0227 40.5001 33.0227C39.1627 33.0227 38.2928 30.0912 38.0174 29.0098C37.9575 28.7748 38.0602 28.5317 38.269 28.4188C38.6099 28.2345 39.1397 27.9739 39.563 27.8807C40.2792 27.7231 40.7209 27.7231 41.4371 27.8807ZM45.6867 39.3591C45.6655 39.2207 45.6952 39.0792 45.7698 38.9621L46.1223 38.4095L47.2515 43.6024C47.2787 43.7279 47.2635 43.8592 47.2084 43.9745L46.5908 45.2654L45.6867 39.3591ZM35.8148 31.7984L35.9044 31.9856C35.9988 32.183 36.1472 32.3475 36.3313 32.4589L40.2232 34.814C40.3941 34.9174 40.606 34.9174 40.7769 34.814L44.6688 32.4589C44.8529 32.3475 45.0013 32.183 45.0957 31.9856L45.1853 31.7984L40.7473 34.1177C40.5919 34.199 40.4082 34.199 40.2528 34.1177L35.8148 31.7984ZM33.7917 43.9745C33.7366 43.8592 33.7214 43.7279 33.7487 43.6024L34.8778 38.4095L35.2303 38.9621C35.3049 39.0792 35.3346 39.2207 35.3134 39.3591L34.4093 45.2654L33.7917 43.9745Z" fill="currentColor"/>
<path fill-rule="evenodd" clip-rule="evenodd" d="M10.2038 24.0702C7.82978 22.8432 7.25462 19.6907 9.07551 17.7347L18.5361 7.57242C19.3271 6.72278 20.6729 6.72278 21.4638 7.57242L30.9508 17.763C32.7638 19.7105 32.2055 22.8523 29.8326 24.0559L29.4286 24.2609L24.7143 26.4348L31.9572 29.5839C33.0681 30.0669 33.9003 31.0274 34.2203 32.1958L37.3077 43.4718C37.6562 44.7446 36.6983 46 35.3787 46H4.62123C3.30164 46 2.34374 44.7446 2.69223 43.4718L5.77971 32.1958C6.09964 31.0274 6.93184 30.0669 8.0428 29.5839L15.2857 26.4348C15.2857 26.4348 12.3709 25.197 10.5714 24.2609C10.452 24.1987 10.3291 24.1351 10.2038 24.0702ZM21.7143 13.8261C22.4887 13.9915 23.458 14.4544 24.0816 14.7815C24.4637 14.982 24.6515 15.4137 24.542 15.831C24.0381 17.7512 22.4466 22.9565 20 22.9565C17.5533 22.9565 15.9618 17.7512 15.458 15.831C15.3485 15.4137 15.5363 14.982 15.9183 14.7815C16.5419 14.4544 17.5112 13.9915 18.2857 13.8261C19.5959 13.5463 20.4041 13.5463 21.7143 13.8261ZM29.4888 34.208C29.45 33.9622 29.5043 33.7109 29.6409 33.503L30.2857 32.5217L32.3514 41.7427C32.4013 41.9655 32.3735 42.1986 32.2726 42.4034L31.1428 44.6957L29.4888 34.208ZM11.4286 20.7826L11.5924 21.1151C11.7651 21.4654 12.0366 21.7576 12.3735 21.9554L19.4935 26.1373C19.8062 26.321 20.1938 26.321 20.5064 26.1373L27.6265 21.9554C27.9633 21.7576 28.2349 21.4654 28.4076 21.1151L28.5714 20.7826L20.4524 24.901C20.168 25.0452 19.832 25.0452 19.5476 24.901L11.4286 20.7826ZM7.72738 42.4034C7.62645 42.1986 7.59863 41.9655 7.64854 41.7427L9.71428 32.5217L10.3591 33.503C10.4957 33.7109 10.5499 33.9622 10.5112 34.208L8.85713 44.6957L7.72738 42.4034Z" fill="currentColor"/>
</svg>
