<svg version="1.0" xmlns="http://www.w3.org/2000/svg" width="524.000000pt" height="524.000000pt"
    viewBox="0 0 524.000000 524.000000" preserveAspectRatio="xMidYMid meet" fill='currentColor'
    paint-order='stroke fill markers'>

    <g transform="translate(0.000000,524.000000) scale(0.100000,-0.100000)" fill="currentColor" stroke="none">
        <path d="M1967 4449 c-21 -5 -50 -15 -65 -23 -33 -18 -176 -163 -593 -601
-600 -631 -602 -633 -622 -785 -17 -133 14 -242 100 -347 65 -79 106 -99 408
-198 299 -98 330 -110 305 -119 -8 -3 -80 -31 -160 -61 -80 -31 -197 -75 -260
-99 -207 -79 -403 -157 -450 -181 -26 -13 -72 -51 -102 -84 -66 -71 -72 -87
-179 -476 -191 -691 -213 -783 -203 -848 16 -96 71 -169 163 -217 l40 -20
2336 2 2337 3 33 37 c52 56 53 76 16 223 -59 232 -132 479 -153 513 -33 53
-73 75 -300 163 -120 46 -218 86 -218 89 0 3 66 27 148 54 162 53 199 75 238
143 34 56 37 137 8 200 -19 42 -324 372 -527 571 -90 88 -96 92 -138 92 -24
-1 -54 -6 -65 -13 -18 -10 -171 -165 -460 -466 l-72 -75 -33 35 c-74 77 -115
96 -796 359 -90 35 -163 67 -163 71 0 4 125 48 278 98 163 53 296 102 322 119
60 38 133 118 163 178 70 139 54 335 -38 453 -72 91 -1030 1098 -1102 1157
-58 48 -132 67 -196 53z m348 -844 c55 -14 122 -33 149 -42 l48 -15 -6 -46
c-10 -74 -113 -369 -163 -468 -25 -51 -76 -134 -113 -185 -54 -76 -77 -99
-120 -121 -68 -36 -128 -37 -197 -3 -58 29 -93 68 -182 205 -82 125 -132 231
-175 371 -51 170 -64 238 -46 249 8 5 79 25 159 44 81 19 155 38 166 40 11 3
101 3 200 1 151 -4 196 -8 280 -30z m-761 -884 l469 -235 518 259 c285 143
521 257 524 253 8 -8 -18 -70 -36 -84 -39 -31 -931 -505 -986 -525 -31 -10
-42 -6 -190 71 -236 124 -667 356 -755 407 -76 44 -118 85 -118 116 0 24 45 3
574 -262z m2631 -661 c120 -12 195 -35 195 -59 0 -37 -72 -227 -110 -292 -54
-91 -99 -129 -152 -129 -37 0 -47 6 -87 48 -53 55 -120 177 -150 276 -32 105
-31 113 32 131 121 35 150 38 272 25z m-3299 -365 c14 -32 24 -75 24 -101 0
-60 -140 -1023 -157 -1078 -5 -18 -6 -18 -15 -1 -14 24 -78 233 -78 254 -1 38
185 981 192 981 5 0 20 -25 34 -55z m2398 -433 c53 -268 96 -494 96 -501 0
-21 -92 -281 -99 -281 -4 0 -19 78 -34 173 -14 94 -54 347 -87 560 l-60 388
34 74 c19 41 39 75 44 75 5 0 53 -219 106 -488z m1365 433 c-30 -29 -501 -275
-525 -275 -11 0 -86 36 -169 81 -82 44 -189 101 -237 126 -80 42 -108 67 -93
82 3 3 117 -50 253 -118 l247 -123 270 135 c252 126 312 148 254 92z m-866
-251 c43 -14 77 -28 75 -30 -2 -2 -34 -15 -71 -29 l-66 -25 -16 52 c-8 28 -15
53 -15 55 0 6 17 2 93 -23z m1001 -628 l45 -234 -23 -69 c-29 -84 -25 -98 -76
245 -37 253 -38 265 -22 298 15 32 17 33 24 15 4 -11 27 -126 52 -255z" />
    </g>
</svg>