<svg width="52" height="52" viewBox="0 0 52 52" fill="currentColor" xmlns="http://www.w3.org/2000/svg">
<path d="M27.1088 3.48177C27.0869 3.30497 26.9723 3.15518 26.8081 3.08591L22.6613 1.33597C22.307 1.18649 21.9222 1.47297 21.9667 1.85487C22.175 3.6424 22.6642 8.01986 23.0605 12.9428C24.089 12.7693 25.1464 12.6869 26.2168 12.7021C26.8537 12.7112 27.4846 12.7538 28.1064 12.8287C27.6976 8.32132 27.2382 4.52512 27.1088 3.48177Z" fill="currentColor"/>
<path d="M21.5562 50.0668C21.5039 50.4644 21.917 50.7606 22.2767 50.5834L26.8318 48.3394C26.9826 48.2651 27.0857 48.1213 27.1062 47.9545C27.2249 46.9857 27.6449 43.4752 28.0382 39.1682C28.1966 37.4326 28.3507 35.5676 28.479 33.6875C28.6815 30.7216 28.8196 27.7181 28.8093 25.1251C28.801 23.0359 28.6941 20.6664 28.5371 18.2765C27.7844 18.1236 27.0052 18.0382 26.2168 18.0213C25.2707 18.001 24.331 18.0843 23.4288 18.268C23.5637 20.6662 23.6479 23.0247 23.6415 25.1251C23.6337 27.7136 23.486 30.6654 23.2703 33.6267C23.1386 35.4341 22.9816 37.2451 22.8157 38.9792C22.3428 43.9201 21.7969 48.2364 21.5562 50.0668Z" fill="currentColor"/>
<path d="M26.2168 12.7021C25.1464 12.6869 24.089 12.7693 23.0605 12.9428C16.7098 14.0145 11.4575 18.5649 11.0263 25.1251C10.5708 32.0547 16.0975 37.6168 22.8157 38.9792C22.9816 37.2451 23.1386 35.4341 23.2703 33.6267C19.2453 32.5716 15.9246 29.2665 16.3739 25.1251C16.782 21.3644 19.8032 19.0062 23.4288 18.268C24.331 18.0843 25.2707 18.001 26.2168 18.0213C27.0052 18.0382 27.7844 18.1236 28.5371 18.2765C32.1871 19.0176 35.2118 21.3434 35.6256 25.1251C36.0901 29.3713 32.6293 32.7074 28.479 33.6875C28.3507 35.5676 28.1966 37.4326 28.0382 39.1682C35.2931 38.2379 41.4576 32.4681 40.9733 25.1251C40.5208 18.2639 34.8543 13.6419 28.1064 12.8287C27.4846 12.7538 26.8537 12.7112 26.2168 12.7021Z" fill="currentColor"/>
</svg>
