<?xml version="1.0" standalone="no"?>
<!DOCTYPE svg PUBLIC "-//W3C//DTD SVG 20010904//EN"
 "http://www.w3.org/TR/2001/REC-SVG-20010904/DTD/svg10.dtd">
<svg version="1.0" xmlns="http://www.w3.org/2000/svg"
 width="524.000000pt" height="524.000000pt" viewBox="0 0 524.000000 524.000000"
 preserveAspectRatio="xMidYMid meet">

<g transform="translate(0.000000,524.000000) scale(0.100000,-0.100000)"
fill="currentColor" stroke="none">
<path d="M1293 4733 c-236 -309 -343 -451 -467 -623 -143 -197 -167 -252 -146
-332 25 -94 90 -142 213 -158 82 -11 1164 -37 1172 -28 3 3 -33 88 -80 188
-47 100 -88 193 -91 205 -5 21 -1 23 83 34 49 6 203 16 342 22 654 27 1027
-64 1332 -324 314 -268 488 -759 449 -1268 -67 -876 -612 -1334 -1553 -1306
-454 13 -781 138 -1037 396 -235 238 -390 605 -419 994 -9 120 -20 154 -67
200 -52 52 -79 57 -293 56 -240 -1 -279 -12 -321 -95 -16 -30 -20 -59 -20
-139 0 -359 124 -768 328 -1080 341 -525 881 -873 1522 -982 163 -28 572 -25
735 5 461 84 845 283 1164 603 425 427 650 1040 603 1641 -42 528 -250 987
-612 1348 -388 388 -872 597 -1450 626 -246 12 -731 -28 -991 -82 -25 -5 -29
2 -109 171 -46 96 -87 175 -91 175 -3 0 -91 -111 -196 -247z"/>
</g>
</svg>
