<?xml version="1.0" standalone="no"?>
<!DOCTYPE svg PUBLIC "-//W3C//DTD SVG 20010904//EN"
 "http://www.w3.org/TR/2001/REC-SVG-20010904/DTD/svg10.dtd">
<svg version="1.0" xmlns="http://www.w3.org/2000/svg"
 width="512.000000pt" height="512.000000pt" viewBox="0 0 512.000000 512.000000"
 preserveAspectRatio="xMidYMid meet">

<g transform="translate(0.000000,512.000000) scale(0.100000,-0.100000)"
fill="currentColor" stroke="none">
<path d="M2372 4749 c-306 -29 -648 -150 -894 -316 -122 -82 -317 -234 -383
-300 -152 -149 -246 -338 -275 -551 -45 -329 108 -645 387 -798 163 -89 223
-127 281 -180 150 -135 235 -314 249 -523 8 -115 32 -179 89 -231 86 -79 44
-75 734 -75 606 0 616 0 660 21 100 48 147 123 160 257 13 125 18 152 42 227
39 121 119 244 212 327 55 49 81 65 253 160 164 91 261 191 339 348 56 114 74
185 81 308 15 266 -96 542 -294 727 -88 83 -273 227 -383 298 -358 233 -821
343 -1258 301z m-460 -720 c150 -32 262 -138 287 -273 17 -92 -26 -182 -140
-297 -141 -141 -282 -219 -409 -226 -66 -4 -79 -2 -110 19 -75 50 -109 172
-110 390 0 147 19 206 89 276 101 100 247 142 393 111z m1450 0 c116 -25 227
-108 269 -202 22 -48 24 -64 23 -207 -1 -222 -31 -322 -110 -371 -29 -18 -46
-21 -108 -17 -62 3 -86 10 -159 46 -152 75 -309 218 -365 332 -113 231 156
481 450 419z m-735 -1028 c47 -34 118 -137 133 -193 20 -73 -20 -136 -115
-179 -121 -56 -295 27 -295 141 0 68 72 190 139 236 48 32 89 31 138 -5z"/>
<path d="M568 2073 c-14 -10 -36 -31 -49 -46 -51 -66 -82 -258 -47 -293 29
-29 198 -71 678 -169 361 -74 790 -175 790 -187 0 -4 -6 -8 -14 -8 -23 0 -735
-236 -956 -317 -208 -76 -407 -164 -448 -199 -16 -13 -27 -41 -38 -94 -29
-143 2 -208 125 -255 63 -24 73 -25 117 -14 62 16 189 63 484 182 567 229
1147 426 1407 477 l58 12 245 -85 c135 -47 452 -160 705 -252 786 -286 959
-340 1011 -316 32 14 54 67 54 128 0 96 -33 163 -108 220 -48 36 -87 49 -277
88 -71 15 -159 38 -195 52 -36 13 -171 65 -300 115 -129 49 -304 114 -388 144
-84 29 -158 57 -164 60 -6 4 42 22 108 41 116 33 270 77 583 169 176 52 489
166 541 196 88 52 148 133 174 233 13 53 14 62 1 82 -20 30 -53 37 -134 29
-197 -18 -893 -194 -1754 -440 l-298 -86 -182 51 c-202 56 -635 188 -912 279
-181 59 -523 165 -625 194 -96 27 -161 30 -192 9z"/>
</g>
</svg>
