<svg width="364" height="472" viewBox="0 0 364 472" fill="none" xmlns="http://www.w3.org/2000/svg">
<path d="M40.5356 302.159C34.1697 300.316 27.4337 303.981 26.418 310.53C24.8192 320.839 24.9288 331.442 26.7633 342.023C29.3011 356.661 35.0901 370.97 43.7998 384.133C52.5096 397.296 62.695 406.031 76.2507 415.715C89.8064 425.399 108.267 430.354 124.605 435.085C140.943 439.816 159.279 445.067 175.911 444.125C192.544 443.183 205.348 441.554 219.744 435.082C234.14 428.61 246.679 419.609 256.645 408.592C263.85 400.628 269.609 391.724 273.766 382.156C276.407 376.078 272.671 369.381 266.305 367.537L153.42 334.848L40.5356 302.159Z" fill="#78A083"/>
<path d="M323.254 168.504C329.624 170.336 336.353 166.658 337.356 160.107C338.935 149.795 338.805 139.192 336.951 128.614C334.385 113.981 328.569 99.6837 319.834 86.5374C311.099 73.3911 300.897 64.6755 287.323 55.0171C273.749 45.3588 255.279 40.4391 238.932 35.7391C222.585 31.0391 204.239 25.8229 187.608 26.7968C170.977 27.7707 158.176 29.4234 143.793 35.923C129.41 42.4225 116.888 51.4477 106.942 62.4834C99.7528 70.4607 94.0113 79.3756 89.8724 88.9514C87.2431 95.035 90.9911 101.725 97.3605 103.556L210.307 136.03L323.254 168.504Z" fill="#78A083"/>
<path d="M75.5773 127.413C77.9577 121.94 79.1479 119.204 81.1136 117.45C82.8455 115.905 84.9883 114.896 87.2823 114.544C89.8859 114.145 92.7537 114.969 98.4892 116.618L315.082 178.892C320.812 180.54 323.677 181.363 325.67 183.083C327.426 184.597 328.705 186.589 329.353 188.815C330.089 191.343 329.648 194.291 328.765 200.187L318.121 271.283C317.981 272.22 317.91 272.688 317.804 273.148C317.71 273.557 317.594 273.961 317.457 274.357C317.303 274.803 317.114 275.238 316.736 276.106L287.875 342.375C285.493 347.844 284.302 350.579 282.337 352.331C280.605 353.875 278.462 354.883 276.169 355.235C273.566 355.633 270.7 354.809 264.967 353.161L48.371 290.886C42.6395 289.238 39.7737 288.414 37.7805 286.695C36.0242 285.179 34.7448 283.188 34.097 280.96C33.3618 278.433 33.8042 275.484 34.6888 269.586L45.3425 198.559C45.4826 197.625 45.5527 197.158 45.6588 196.699C45.753 196.291 45.8686 195.889 46.0048 195.493C46.1582 195.048 46.3466 194.615 46.7235 193.749L75.5773 127.413Z" fill="url(#paint0_radial_14799_77884)"/>
<defs>
<radialGradient id="paint0_radial_14799_77884" cx="0" cy="0" r="1" gradientUnits="userSpaceOnUse" gradientTransform="translate(181.959 234.953) rotate(106.041) scale(90.6658 135.999)">
<stop stop-color="#FFF4BE"/>
<stop offset="1" stop-color="#FFC374"/>
</radialGradient>
</defs>
</svg>
